<svg id="kity_svg_6" xmlns="http://www.w3.org/2000/svg" xmlns:xlink="http://www.w3.org/1999/xlink" version="1.1" width="719" height="408" style="background: rgb(251, 251, 251); visibility: visible;" viewBox="0 0 719 408"><defs id="kity_defs_7"><linearGradient id="kity_linearGradient_17" x1="0" y1="0" x2="0" y2="1"><stop id="kity_stop_18" offset="0" stop-color="rgb(255, 255, 255)"></stop><stop id="kity_stop_19" offset="1" stop-color="rgb(204, 204, 204)"></stop></linearGradient><marker id="kity_marker_2" orient="auto" refX="6" refY="0" viewBox="-7 -7 14 14" markerWidth="7" markerHeight="7" markerUnits="userSpaceOnUse"><path id="kity_path_3" fill="rgb(191, 115, 115)" stroke="none" d="M6,0A6,6,0,1,1,-6,0A6,6,0,1,1,6,0"></path></marker></defs><g id="kity_g_8"><g id="minder1" text-rendering="optimize-speed"><g id="minder_connect_group1"><path id="kity_path_31" fill="none" stroke="rgb(191, 115, 115)" stroke-width="1" d="M143.50000458210707,204.50000471621752A241,170,0,0,1,384.50000458210707,34.50000471621752"></path><path id="kity_path_33" fill="none" stroke="rgb(191, 115, 115)" stroke-width="1" d="M143.50000458210707,204.50000471621752A241,102,0,0,1,384.50000458210707,102.50000471621752"></path><path id="kity_path_35" fill="none" stroke="rgb(191, 115, 115)" stroke-width="1" d="M143.50000458210707,204.50000471621752A241,34,0,0,1,384.50000458210707,170.50000471621752"></path><path id="kity_path_37" fill="none" stroke="rgb(191, 115, 115)" stroke-width="1" d="M143.50000458210707,204.50000471621752A241,34,0,0,0,384.50000458210707,238.50000471621752"></path><path id="kity_path_39" fill="none" stroke="rgb(191, 115, 115)" stroke-width="1" d="M143.50000458210707,204.50000471621752A241,102,0,0,0,384.50000458210707,306.5000047162175"></path><path id="kity_path_41" fill="none" stroke="rgb(191, 115, 115)" stroke-width="1" d="M143.50000458210707,204.50000471621752A241,170,0,0,0,384.50000458210707,374.5000047162175"></path></g><g id="minder_node1"><path id="node_outline1" fill="rgb(191, 115, 115)" stroke="rgb(96, 57, 57)" d="M25.500004582107067,183.50000471621752h236a5,5,0,0,1,5,5v32a5,5,0,0,1,-5,5h-236a5,5,0,0,1,-5,-5v-32a5,5,0,0,1,5,-5z" stroke-width="3"></path><g id="node_text1" fill="white"><text id="kity_text_22" text-rendering="inherit" font-size="18" dy=".8em" y="192.80000467598438" x="44.50000458210707">实施『过程方法』的益处</text></g></g><g id="kity_g_12"><path id="kity_path_13" fill="none" stroke="none" d="M44.50000458210707,204.50000471621752h0v0h0z"></path></g><g id="kity_g_14"><path id="kity_path_15" fill="none" stroke="none" d="M44.50000458210707,204.50000471621752h0v0h0z"></path><path id="kity_path_16" fill="none" stroke="none"></path></g><g id="minder_node2"><g id="node_expander1" display="none" style="cursor: pointer;"><path id="kity_path_61" fill="white" stroke="gray" d="M385.50000957399607,34.500002183020115A6,6,0,1,1,373.50000957399607,34.500002183020115A6,6,0,1,1,385.50000957399607,34.500002183020115"></path><path id="kity_path_62" fill="none" stroke="gray"></path></g><path id="node_outline2" fill="rgb(246, 238, 238)" stroke="rgb(191, 115, 115)" d="M389.5000099763274,20.500002183020115h131a3,3,0,0,1,3,3v22a3,3,0,0,1,-3,3h-131a3,3,0,0,1,-3,-3v-22a3,3,0,0,1,3,-3z" stroke-width="1"></path><g id="node_text2" fill="black"><text id="kity_text_43" text-rendering="inherit" font-size="16" dy=".8em" y="24.100002147257328" x="406.5000099763274">关注关键过程</text></g></g><g id="minder_node3"><g id="node_expander2" display="none" style="cursor: pointer;"><path id="kity_path_64" fill="white" stroke="gray" d="M385.50000957399607,102.50000319629908A6,6,0,1,1,373.50000957399607,102.50000319629908A6,6,0,1,1,385.50000957399607,102.50000319629908"></path><path id="kity_path_65" fill="none" stroke="gray"></path></g><path id="node_outline3" fill="rgb(246, 238, 238)" stroke="rgb(191, 115, 115)" d="M389.5000099763274,88.50000319629908h131a3,3,0,0,1,3,3v22a3,3,0,0,1,-3,3h-131a3,3,0,0,1,-3,-3v-22a3,3,0,0,1,3,-3z" stroke-width="1"></path><g id="node_text3" fill="black"><text id="kity_text_45" text-rendering="inherit" font-size="16" dy=".8em" y="92.10000316053629" x="406.5000099763274">关注改进机会</text></g></g><g id="minder_node4"><g id="node_expander3" display="none" style="cursor: pointer;"><path id="kity_path_67" fill="white" stroke="gray" d="M385.50000957399607,170.50000420957804A6,6,0,1,1,373.50000957399607,170.50000420957804A6,6,0,1,1,385.50000957399607,170.50000420957804"></path><path id="kity_path_68" fill="none" stroke="gray"></path></g><path id="node_outline4" fill="rgb(246, 238, 238)" stroke="rgb(191, 115, 115)" d="M389.5000099763274,156.50000420957804h99a3,3,0,0,1,3,3v22a3,3,0,0,1,-3,3h-99a3,3,0,0,1,-3,-3v-22a3,3,0,0,1,3,-3z" stroke-width="1"></path><g id="node_text4" fill="black"><text id="kity_text_47" text-rendering="inherit" font-size="16" dy=".8em" y="160.10000417381525" x="406.5000099763274">协调一致</text></g></g><g id="minder_node5"><g id="node_expander4" display="none" style="cursor: pointer;"><path id="kity_path_70" fill="white" stroke="gray" d="M385.50000957399607,238.500005222857A6,6,0,1,1,373.50000957399607,238.500005222857A6,6,0,1,1,385.50000957399607,238.500005222857"></path><path id="kity_path_71" fill="none" stroke="gray"></path></g><path id="node_outline5" fill="rgb(246, 238, 238)" stroke="rgb(191, 115, 115)" d="M389.5000099763274,224.500005222857h130a3,3,0,0,1,3,3v22a3,3,0,0,1,-3,3h-130a3,3,0,0,1,-3,-3v-22a3,3,0,0,1,3,-3z" stroke-width="1"></path><g id="node_text5" fill="black"><text id="kity_text_49" text-rendering="inherit" font-size="16" dy=".8em" y="228.1000051870942" x="406.5000099763274">资源高效利用</text></g></g><g id="minder_node6"><g id="node_expander5" display="none" style="cursor: pointer;"><path id="kity_path_73" fill="white" stroke="gray" d="M385.50000957399607,306.50000623613596A6,6,0,1,1,373.50000957399607,306.50000623613596A6,6,0,1,1,385.50000957399607,306.50000623613596"></path><path id="kity_path_74" fill="none" stroke="gray"></path></g><path id="node_outline6" fill="rgb(246, 238, 238)" stroke="rgb(191, 115, 115)" d="M389.5000099763274,292.50000623613596h146a3,3,0,0,1,3,3v22a3,3,0,0,1,-3,3h-146a3,3,0,0,1,-3,-3v-22a3,3,0,0,1,3,-3z" stroke-width="1"></path><g id="node_text6" fill="black"><text id="kity_text_51" text-rendering="inherit" font-size="16" dy=".8em" y="296.1000062003732" x="406.5000099763274">减少跨职能壁垒</text></g></g><g id="minder_node7"><g id="node_expander6" display="none" style="cursor: pointer;"><path id="kity_path_76" fill="white" stroke="gray" d="M385.50000957399607,374.5000072494149A6,6,0,1,1,373.50000957399607,374.5000072494149A6,6,0,1,1,385.50000957399607,374.5000072494149"></path><path id="kity_path_77" fill="none" stroke="gray"></path></g><path id="node_outline7" fill="rgb(246, 238, 238)" stroke="rgb(191, 115, 115)" d="M389.5000099763274,360.5000072494149h307a3,3,0,0,1,3,3v22a3,3,0,0,1,-3,3h-307a3,3,0,0,1,-3,-3v-22a3,3,0,0,1,3,-3z" stroke-width="1"></path><g id="node_text7" fill="black"><text id="kity_text_53" text-rendering="inherit" font-size="16" dy=".8em" y="364.10000721365213" x="406.5000099763274">提供一致性、有效性和效率方面的信任</text></g></g></g></g></svg>